<?xml version="1.0" standalone="no"?>
<!DOCTYPE svg PUBLIC "-//W3C//DTD SVG 20010904//EN"
 "http://www.w3.org/TR/2001/REC-SVG-20010904/DTD/svg10.dtd">
<svg version="1.0" xmlns="http://www.w3.org/2000/svg"
 width="794.000000pt" height="773.000000pt" viewBox="0 0 794.000000 773.000000"
 preserveAspectRatio="xMidYMid meet">
<metadata>
Created by potrace 1.15, written by Peter Selinger 2001-2017
</metadata>
<g transform="translate(0.000000,773.000000) scale(0.100000,-0.100000)"
fill="#000000" stroke="none">
<path d="M3990 7258 c-47 -32 -53 -81 -16 -126 15 -16 26 -33 26 -36 0 -3 -21
-17 -47 -30 -28 -14 -92 -70 -152 -130 -118 -121 -139 -129 -189 -75 l-29 31
-31 -37 c-18 -19 -32 -41 -32 -48 1 -30 30 -62 66 -72 l37 -10 -41 -28 c-48
-31 -67 -63 -77 -132 -4 -32 -17 -63 -36 -86 -30 -38 -36 -63 -19 -74 21 -13
8 -43 -50 -119 -33 -43 -60 -84 -60 -90 0 -7 -13 -27 -30 -46 -26 -32 -38 -60
-25 -60 3 0 27 11 53 24 26 12 62 26 81 30 30 5 38 2 67 -29 34 -37 52 -92 37
-118 -4 -8 -59 -54 -121 -102 -147 -115 -154 -144 -61 -238 41 -43 49 -57 49
-89 0 -45 22 -63 88 -74 38 -6 46 -4 72 21 30 28 29 28 108 8 21 -5 22 -3 17
33 -6 36 -3 43 43 91 41 43 51 62 56 100 4 27 9 60 12 75 5 23 1 30 -22 38
-26 10 -27 12 -22 74 4 49 12 72 32 99 l26 34 -21 47 c-11 26 -18 54 -15 61 3
8 27 26 55 39 57 29 59 32 86 106 26 72 57 91 108 67 49 -24 105 -21 189 8 39
14 86 25 103 25 18 0 53 -11 79 -25 47 -25 106 -34 106 -15 0 5 -25 28 -55 50
l-56 41 22 27 21 27 -23 3 c-12 2 -62 -4 -111 -13 -67 -13 -98 -15 -130 -7
-24 5 -59 8 -79 5 -26 -3 -41 0 -54 13 -17 17 -17 19 4 35 31 25 354 38 398
16 16 -9 51 -21 78 -28 34 -9 69 -30 123 -76 91 -77 94 -76 112 54 16 107 11
117 -60 121 -48 3 -52 5 -45 25 3 12 11 42 18 67 17 63 36 62 107 -6 l60 -57
51 11 c28 7 66 12 86 12 26 0 42 8 66 33 18 17 52 43 77 57 30 16 58 45 84 83
l38 58 26 -23 c53 -49 100 -136 112 -208 11 -67 11 -71 -12 -99 -17 -23 -29
-29 -48 -25 -20 4 -34 -5 -68 -41 -32 -34 -50 -45 -72 -45 -21 0 -47 -15 -93
-54 -74 -62 -91 -72 -158 -92 -28 -8 -53 -22 -56 -30 -3 -8 3 -46 12 -84 25
-104 21 -113 -77 -145 -46 -16 -111 -31 -144 -35 -34 -4 -81 -16 -105 -28 -58
-27 -186 -47 -205 -31 -19 16 -18 23 12 58 31 37 27 54 -18 81 -67 41 -134 20
-191 -58 -19 -27 -73 -81 -120 -121 -83 -72 -85 -74 -158 -221 -64 -130 -79
-153 -120 -184 -50 -37 -54 -46 -84 -175 -24 -106 -17 -137 65 -280 19 -33 19
-34 -1 -85 -71 -179 -71 -179 -15 -328 20 -54 41 -120 47 -148 11 -53 7 -48
139 -152 30 -24 62 -57 71 -73 17 -29 51 -162 51 -196 0 -10 15 -23 38 -32 25
-10 47 -29 65 -56 41 -66 79 -71 204 -26 57 20 87 19 125 -4 86 -53 199 -93
288 -101 116 -11 121 -9 112 47 l-7 45 63 57 c34 31 84 77 111 102 l49 46 0
69 c0 79 10 100 73 145 51 37 106 39 162 4 74 -46 120 -24 134 63 6 34 9 37
50 44 69 12 95 -6 102 -68 4 -32 19 -70 41 -105 18 -30 40 -67 49 -84 12 -24
21 -30 45 -28 16 1 45 4 65 5 28 2 55 -10 134 -57 54 -33 113 -75 129 -94 66
-71 104 -107 137 -126 l34 -20 0 -80 c1 -78 9 -125 23 -125 19 1 195 156 250
221 135 160 263 482 262 661 -1 68 -29 132 -69 152 -57 30 -130 21 -306 -39
-243 -82 -307 -76 -471 40 -75 54 -150 137 -165 183 -20 60 -8 64 207 66 253
3 285 14 469 157 126 97 220 141 360 165 88 15 115 35 115 85 0 125 -236 466
-569 823 -56 59 -100 113 -98 120 16 46 308 -80 537 -232 174 -116 292 -216
461 -389 367 -378 575 -773 665 -1268 15 -79 18 -151 18 -340 l0 -240 -32
-120 c-18 -66 -53 -181 -78 -254 -135 -407 -400 -711 -620 -711 -97 0 -184 38
-184 81 0 10 37 49 86 90 97 81 176 175 259 311 88 141 189 377 171 396 -8 7
-7 9 -45 -83 -118 -280 -284 -521 -466 -671 -61 -51 -57 -65 29 -108 50 -25
70 -30 144 -30 74 -1 95 3 142 25 122 58 250 184 330 325 19 33 37 61 41 64
12 9 95 182 122 255 45 118 106 347 122 451 30 199 16 480 -35 700 -98 420
-359 868 -709 1214 -147 145 -252 232 -407 336 -202 135 -445 242 -564 248
-46 2 -56 8 -131 72 -545 467 -1255 756 -1939 790 -110 6 -117 5 -150 -18z"/>
<path d="M3380 7253 l-105 -15 -28 -59 c-16 -32 -45 -81 -66 -107 -54 -68 -72
-106 -78 -166 -5 -51 -5 -51 36 -78 67 -44 110 -41 162 10 27 28 36 44 33 59
-3 12 -1 30 5 41 l11 21 48 -21 c26 -11 52 -26 58 -34 21 -27 44 -13 104 62
56 70 77 124 49 124 -6 0 -9 22 -7 58 3 75 -4 87 -42 67 -42 -22 -60 -19 -60
8 0 13 5 28 12 35 15 15 8 15 -132 -5z"/>
<path d="M2957 6525 c-25 -19 -50 -35 -55 -35 -15 0 -42 -36 -42 -56 0 -10
-14 -31 -32 -45 -75 -62 41 -106 153 -58 27 12 52 20 54 17 2 -2 -2 -24 -9
-48 -7 -25 -16 -66 -19 -92 -8 -57 5 -62 51 -23 19 15 33 21 37 15 11 -18 23
-11 34 20 7 21 29 42 70 68 63 39 81 64 81 112 0 41 -22 49 -126 48 -49 -1
-99 2 -112 6 -21 7 -22 12 -16 57 8 61 -4 64 -69 14z"/>
<path d="M2125 6525 c-22 -7 -128 -34 -235 -60 -182 -44 -290 -79 -290 -94 0
-4 -17 -33 -37 -66 -37 -58 -46 -82 -80 -207 -17 -63 -11 -146 12 -154 23 -9
76 23 155 92 97 85 104 87 163 56 37 -19 57 -23 90 -19 96 13 173 -41 227
-159 36 -78 41 -83 75 -90 56 -10 110 1 240 49 132 50 144 62 145 139 0 52
-26 91 -84 128 -35 21 -43 34 -95 160 -35 85 -105 184 -153 218 -36 24 -72 26
-133 7z"/>
<path d="M1415 5731 c-11 -5 -39 -29 -61 -53 -97 -105 -211 -345 -419 -886
-46 -121 -48 -123 -93 -146 -84 -43 -337 -197 -343 -209 -6 -12 -15 -64 -24
-142 -2 -22 -7 -64 -10 -94 l-6 -54 33 7 c18 4 50 10 70 13 36 5 37 5 49 -38
8 -31 9 -78 3 -159 -14 -196 -11 -300 9 -351 18 -44 18 -50 -2 -198 l-21 -153
54 -87 c29 -48 65 -109 79 -136 17 -34 43 -62 79 -87 143 -101 128 -82 187
-235 l54 -140 74 24 c40 12 82 23 93 23 10 0 20 3 22 8 2 4 93 4 203 -1 202
-8 256 -5 326 13 l38 10 -28 58 c-58 117 -58 120 -25 229 l29 98 80 58 c44 31
112 73 150 93 l71 35 144 -70 c80 -39 157 -71 171 -71 22 0 31 8 49 45 12 25
24 63 27 84 5 39 5 40 -27 43 -45 4 -67 37 -86 128 -18 84 -14 200 9 288 13
47 12 60 -6 135 -17 73 -18 92 -9 172 19 152 32 181 116 268 81 83 136 166
136 209 0 14 -11 50 -25 80 -14 29 -25 61 -25 71 0 35 -31 85 -68 111 -69 47
-230 106 -291 106 -67 0 -206 -32 -261 -60 -38 -19 -116 -104 -167 -182 l-26
-38 27 -59 c47 -105 39 -115 -110 -132 -111 -12 -154 -7 -179 21 -15 17 -16
31 -10 106 7 85 8 88 47 123 21 19 56 56 76 80 34 42 37 51 42 126 l5 80 65
32 c69 34 99 40 117 22 22 -22 41 40 67 218 23 147 48 402 41 413 -3 5 -30 0
-62 -11 -130 -45 -233 -14 -345 102 -67 70 -77 74 -113 60z"/>
<path d="M6908 3973 c-14 -16 -44 -56 -66 -89 -62 -92 -151 -201 -227 -276
-49 -50 -63 -68 -49 -68 31 -1 -83 -99 -180 -155 -180 -104 -176 -101 -176
-139 0 -24 9 -43 29 -65 58 -62 209 -108 271 -83 24 10 23 11 -11 11 -55 1
-122 28 -169 68 -87 75 -77 111 53 182 126 70 257 170 317 242 60 72 210 290
238 345 19 38 20 54 2 54 -3 0 -18 -12 -32 -27z"/>
<path d="M7207 3803 c-8 -10 -52 -76 -97 -148 -88 -140 -143 -217 -201 -280
-20 -22 -42 -53 -50 -70 -21 -43 -136 -135 -238 -190 -50 -26 -93 -56 -96 -66
-24 -76 145 -165 273 -143 l47 7 -60 9 c-114 15 -218 91 -200 147 3 11 39 37
84 60 150 78 233 154 371 341 57 78 190 294 206 333 8 23 -18 22 -39 0z"/>
<path d="M412 3653 c-73 -35 -218 -225 -286 -376 -53 -116 -94 -244 -111 -347
-19 -120 -19 -328 0 -446 59 -362 274 -839 512 -1134 185 -229 520 -490 768
-598 97 -42 408 -156 491 -180 171 -49 383 -56 475 -15 107 48 182 155 123
177 -9 4 -14 -1 -14 -15 0 -26 -75 -106 -122 -130 -204 -104 -697 28 -1107
297 -280 184 -465 346 -609 532 -211 274 -378 640 -459 1009 -25 112 -25 425
0 541 52 234 165 462 290 584 26 27 59 51 73 54 24 6 31 28 16 51 -6 9 -15 8
-40 -4z"/>
<path d="M3018 3169 c-10 -5 -22 -33 -28 -67 -14 -67 -24 -87 -59 -126 l-26
-28 64 4 c74 5 85 15 101 95 18 87 -7 147 -52 122z"/>
<path d="M2483 2998 c-163 -109 -164 -111 -145 -130 11 -12 41 -22 75 -27 l57
-8 0 38 c0 43 15 56 115 106 92 47 105 49 125 23 l16 -22 58 57 c32 31 55 59
51 63 -4 4 -47 8 -97 9 l-89 2 -166 -111z"/>
<path d="M3475 2864 c-128 -57 -254 -96 -320 -99 -33 -1 -69 -7 -81 -13 -11
-6 -98 -92 -193 -191 -95 -100 -184 -184 -196 -187 -35 -9 -62 11 -70 52 -10
55 -50 139 -74 156 -18 13 -30 13 -88 2 -125 -24 -188 17 -208 133 -3 23 -12
47 -20 53 -10 8 -14 -1 -20 -47 -12 -99 -75 -235 -131 -285 -41 -36 -137 -69
-282 -98 -82 -17 -165 -36 -183 -44 l-33 -14 74 -6 c99 -9 249 7 341 35 103
32 186 31 266 -4 34 -15 67 -27 72 -27 5 0 28 16 51 35 23 19 46 35 52 35 5 0
31 -19 56 -41 69 -61 154 -99 224 -99 73 0 90 7 163 69 64 55 93 63 124 30 36
-39 35 -63 -14 -304 -29 -140 -29 -229 -1 -282 57 -109 248 -188 491 -203 143
-8 270 -33 362 -69 160 -63 359 -200 508 -350 121 -123 150 -121 230 14 59 99
155 411 155 505 0 53 39 142 94 213 35 46 36 50 36 131 l0 83 -66 94 c-90 127
-183 237 -257 305 -64 58 -142 104 -175 104 -11 0 -46 18 -78 40 -33 22 -66
40 -76 40 -9 0 -25 -16 -37 -35 -32 -55 -65 -49 -145 28 -64 61 -71 76 -101
193 -2 8 -22 7 -72 -2 -117 -23 -178 -19 -227 15 -23 16 -49 39 -57 50 -14 20
-15 20 -94 -15z"/>
<path d="M2265 1060 c22 -5 92 -11 155 -15 156 -8 178 -12 191 -36 15 -30 4
-64 -38 -110 -75 -83 -173 -108 -352 -90 -63 6 -116 9 -119 7 -9 -10 122 -21
238 -21 110 1 131 3 173 24 89 44 151 144 124 200 -12 25 -15 26 -142 32 -72
3 -161 9 -200 12 -53 5 -60 4 -30 -3z"/>
</g>
</svg>
